# Blender v2.79 (sub 0) OBJ File: 'ROBOT5.blend'
# www.blender.org
v 1.941370 5.656857 2.545042
v 1.771833 5.597162 2.475657
v 1.859318 5.674176 2.726560
v 1.688541 5.619543 2.656054
v 1.916432 5.403458 2.801455
v 1.843210 5.359735 2.672373
v 1.966520 5.353912 2.522485
v 1.611033 5.642187 2.505379
v 1.684649 5.695631 2.369613
v 2.401752 5.911167 2.845479
v 2.368404 5.970933 2.856466
v 2.127737 5.958799 3.066077
v 2.296949 5.804281 3.016032
v 1.627444 5.801369 2.906251
v 1.830419 5.810823 3.085130
v 1.845635 5.891110 3.073955
v 2.055977 5.869693 3.101546
v 1.647759 5.731064 2.927979
v 1.914269 5.724556 2.244527
v 1.846329 5.554976 2.321738
v 2.056790 5.568312 2.280580
v 2.173879 5.791977 2.263763
v 2.401898 5.897145 2.483626
v 2.189437 5.779032 3.086362
v 1.557620 5.736735 2.695521
v 1.787981 5.450088 2.818493
v 1.898825 5.465891 2.865540
v 1.626020 5.536320 2.734591
v 2.115435 5.539412 2.959546
v 2.153454 5.641623 3.064345
v 2.089846 5.783616 3.116355
v 1.962183 5.594988 3.073132
v 1.911454 5.509913 2.971578
v 2.019558 5.559830 3.034955
v 2.255285 5.648932 3.013884
v 1.736756 5.507513 2.905609
v 1.633212 5.595693 2.847981
v 2.091276 5.851176 2.913918
v 2.248417 5.814708 2.577410
v 1.921125 5.703752 2.436594
v 1.764153 5.739518 2.773257
v 2.332450 5.530796 2.647913
v 2.455923 5.752331 2.680511
v 1.769576 5.531723 2.384125
v 2.443038 5.723325 2.576544
v 2.405862 5.599713 2.660903
v 2.305010 5.520528 2.513868
v 2.374901 5.622365 2.473253
v 2.251215 5.574620 2.359414
v 2.365556 5.694636 2.413801
v 2.158772 5.469133 2.420423
v 2.188418 5.617692 2.296041
v 2.087176 5.497191 2.339304
v 2.141519 5.449539 2.507295
v 1.957656 5.538714 2.295061
v 1.982533 5.412675 2.497621
v 1.958930 5.451695 2.387592
v 1.824522 5.462259 2.413378
v 1.967187 5.862103 3.167386
v 1.668874 5.761459 3.040932
v 1.720145 5.539094 3.079768
v 2.019884 5.639763 3.207320
v 1.667940 5.612048 2.920739
v 1.681305 5.633764 2.982208
v 2.057709 5.742596 3.144128
v 2.136986 5.691470 3.095698
v 1.691485 5.614172 3.046303
v 1.619493 6.756031 2.054533
v 1.586755 6.101409 2.897883
v 1.840896 6.083738 3.062152
v 1.589642 5.876551 2.387663
v 1.654403 6.483069 2.104248
v 2.260528 6.145995 2.312757
v 2.331791 6.325953 2.611119
v 2.370145 6.103547 2.526407
v 2.234756 6.017957 2.285310
v 2.005563 6.079574 2.175479
v 1.969911 5.932152 2.197002
v 1.789783 6.098178 2.179822
v 1.822214 5.901661 2.229278
v 1.585941 6.563239 2.054009
v 1.359855 6.504728 2.426101
v 1.322334 6.761939 2.425109
v 1.468398 6.097027 2.564596
v 1.551717 5.960561 2.827247
v 1.815039 6.208635 3.025847
v 2.012752 6.328402 2.996441
v 2.161588 6.150010 2.992380
v 2.016420 6.809319 2.848410
v 2.336413 6.153682 2.801928
v 2.229937 6.747570 2.569608
v 2.145177 6.978610 2.474735
v 2.258693 6.089242 2.591642
v 2.187704 6.118793 2.814756
v 1.946669 6.085982 2.947028
v 1.841634 5.930546 2.341852
v 2.122263 6.003960 2.353221
v 1.709984 6.002563 2.836471
v 1.641448 5.927833 2.566944
v 1.971481 6.916630 2.925488
v 1.497405 6.948482 1.968654
v 1.220405 6.863642 2.321353
v 2.189402 7.130889 2.524025
v 1.778249 7.310514 2.766273
v 2.007284 7.318657 2.375675
v 1.715074 7.311451 2.140509
v 1.350867 7.260590 2.422690
v 1.777450 6.839648 2.801941
v 1.435893 6.679452 2.528472
v 1.662116 6.632707 2.711018
v 1.851850 6.990789 2.843373
v 1.383815 6.915525 2.484357
v 1.317664 6.954635 2.414578
v 1.484488 7.101555 2.563672
v 1.439096 7.176036 2.509447
v 1.679002 7.208100 2.702295
v 1.703163 7.081288 2.739896
v 2.018280 6.668394 2.358626
v 2.090780 6.883857 2.414988
v 1.845081 6.617705 2.219671
v 1.684743 6.813253 2.088781
v 2.070265 7.129722 2.410121
v 1.981398 7.104796 2.324884
v 1.814478 7.202812 2.189111
v 1.777784 7.079285 2.161209
v 1.613820 6.953136 2.045917
v 1.802728 7.239166 2.210618
v 2.317142 5.918556 2.642293
v 2.146312 5.820854 2.387666
v 1.822123 5.855211 2.934167
v 2.097229 5.931581 2.963243
v 1.951647 5.767807 2.363732
v 1.737956 5.741347 2.499434
v 1.692323 5.781183 2.739462
v 2.258316 5.464989 2.758777
v 2.192332 5.464087 2.889609
v 2.273181 5.594139 2.726814
v 1.650516 5.811700 2.933716
v 2.365062 5.883571 2.422314
v 2.036006 5.942273 3.088929
v 1.575223 5.749346 2.730328
v 2.273967 5.979740 2.982170
v 1.779388 5.711948 2.312147
v 2.414554 5.958640 2.715988
v 2.132749 5.789451 2.256305
v 1.816213 5.881350 3.063940
v 1.678232 5.769311 2.701719
v 1.615716 5.705697 2.477233
v 1.914916 5.732752 2.248832
v 1.901826 5.886084 2.984460
v 1.798254 5.743011 2.435611
v 2.213295 5.941937 2.876720
v 2.305402 5.914329 2.637695
v 2.122691 5.808568 2.358027
v 1.525882 5.896700 2.593224
v 1.993068 6.115787 3.057581
v 2.174625 6.144336 2.983303
v 2.360909 6.086920 2.487631
v 2.270443 6.029411 2.331887
v 1.644709 5.874796 2.344104
v 1.835277 5.894811 2.225665
v 2.081035 5.955738 2.210365
v 2.371035 6.129424 2.678041
v 2.307021 6.145799 2.849408
v 1.810034 6.062681 3.042007
v 1.657164 6.004439 2.953364
v 1.556374 5.950776 2.808817
v 1.685310 5.918459 2.470814
v 1.665875 5.979647 2.781252
v 2.180288 6.026731 2.391227
v 1.900667 5.942047 2.325731
v 1.970745 6.093529 2.953863
v 2.245077 6.113305 2.720819
v 1.856691 5.362185 2.720098
v 1.926556 5.337570 2.593668
v 1.870161 5.377924 2.671427
v 2.288261 5.771941 2.699677
v 2.120112 5.711941 2.627241
v 2.203155 5.788188 2.879882
v 2.033767 5.733251 2.806326
v 2.260004 5.517355 2.954566
v 2.189086 5.473927 2.824104
v 2.314878 5.469186 2.676256
v 2.383743 5.871772 2.732277
v 2.271674 5.799223 2.592648
v 1.628991 5.811506 2.420173
v 1.907022 5.673886 2.435942
v 1.751739 5.710719 2.767829
v 2.116977 5.833671 2.925063
v 2.303005 5.861759 2.928706
v 1.784958 5.589465 2.587525
vn -0.2392 0.9439 -0.2276
vn -0.2257 0.9549 -0.1931
vn 0.9622 0.2391 0.1303
vn 0.9119 0.0453 0.4079
vn -0.4197 0.1587 0.8937
vn -0.7318 -0.4011 0.5510
vn -0.6296 -0.5991 -0.4947
vn -0.8080 -0.5005 -0.3109
vn 0.3471 0.0983 -0.9327
vn 0.2063 -0.9564 0.2069
vn -0.9363 -0.3381 -0.0949
vn -0.8880 0.2605 -0.3790
vn -0.7176 -0.4210 -0.5548
vn 0.9423 0.3344 -0.0126
vn 0.6347 0.2179 0.7414
vn 0.8717 0.4898 -0.0186
vn 0.6059 0.4513 0.6552
vn -0.6617 0.0402 0.7487
vn -0.6502 0.2243 0.7259
vn -0.0057 0.1389 0.9903
vn -0.1901 0.4914 0.8499
vn -0.5280 -0.3424 -0.7772
vn -0.4458 -0.2168 -0.8685
vn -0.2641 -0.3100 -0.9133
vn -0.0582 -0.2746 -0.9598
vn 0.1170 -0.1714 -0.9782
vn 0.1497 -0.0907 -0.9846
vn 0.5809 -0.1011 -0.8077
vn 0.6533 0.1394 -0.7442
vn 0.9038 -0.0147 -0.4277
vn 0.9762 0.1448 -0.1614
vn 0.4849 0.2606 0.8348
vn 0.2367 0.1888 0.9531
vn -0.9063 -0.1385 0.3992
vn -0.9299 -0.1242 0.3462
vn -0.9377 -0.2799 0.2060
vn 0.2848 -0.0687 0.9561
vn 0.2890 0.2716 0.9180
vn 0.1543 -0.9189 0.3631
vn 0.1540 -0.8868 0.4358
vn 0.3271 -0.7209 0.6110
vn -0.1665 -0.8654 0.4725
vn 0.3351 -0.7523 0.5672
vn 0.1772 -0.5767 0.7975
vn -0.2521 -0.6761 0.6923
vn -0.0315 -0.7584 0.6511
vn -0.0327 -0.9217 0.3865
vn -0.5435 -0.8113 0.2152
vn -0.7129 -0.6017 0.3603
vn -0.7101 -0.5339 0.4590
vn -0.8725 -0.1757 0.4559
vn 0.5031 -0.2121 0.8378
vn 0.4333 -0.3729 0.8205
vn 0.5666 -0.1631 0.8076
vn 0.2300 -0.9502 0.2104
vn -0.2326 0.9494 -0.2110
vn -0.2319 0.9499 -0.2097
vn -0.2374 0.9480 -0.2121
vn -0.2350 0.9486 -0.2120
vn -0.2338 0.9505 -0.2045
vn -0.2305 0.9490 -0.2149
vn -0.2298 0.9506 -0.2088
vn 0.2351 -0.9489 0.2104
vn -0.4735 -0.7070 0.5253
vn -0.3024 0.1445 0.9422
vn 0.2808 -0.4977 0.8206
vn -0.4216 0.1000 0.9012
vn -0.4380 0.0282 0.8985
vn -0.3973 0.0710 0.9149
vn -0.4456 0.0927 0.8904
vn -0.4208 0.0994 0.9017
vn 0.8171 -0.5012 -0.2849
vn 0.0548 -0.8609 -0.5058
vn 0.4215 -0.0993 -0.9014
vn 0.4015 -0.1091 -0.9093
vn 0.4238 -0.1012 -0.9001
vn 0.4265 -0.0985 -0.8991
vn 0.4116 -0.1076 -0.9050
vn 0.4234 -0.0955 -0.9009
vn 0.6900 -0.7187 -0.0862
vn 0.3986 -0.9170 -0.0114
vn 0.9509 -0.3078 -0.0320
vn 0.8941 -0.4027 -0.1961
vn 0.3994 -0.9082 -0.1255
vn 0.7687 -0.6074 -0.2002
vn 0.8972 -0.2056 -0.3909
vn 0.6471 -0.6207 -0.4427
vn 0.5344 -0.7223 -0.4391
vn 0.6997 -0.3977 -0.5935
vn 0.6066 -0.2336 -0.7599
vn 0.2019 -0.9415 0.2699
vn 0.4015 -0.6961 -0.5952
vn 0.3587 -0.5675 -0.7411
vn 0.2927 -0.5313 -0.7950
vn 0.2324 -0.9577 -0.1699
vn 0.0698 -0.6172 -0.7837
vn 0.1494 -0.8863 -0.4384
vn 0.1393 -0.9235 -0.3574
vn 0.0005 -0.7285 -0.6851
vn -0.1853 -0.7171 -0.6719
vn -0.2659 -0.6453 -0.7162
vn -0.1328 -0.9428 -0.3058
vn -0.3868 -0.6006 -0.6997
vn 0.2338 -0.9494 0.2099
vn 0.2312 -0.9498 0.2109
vn -0.2355 0.9508 -0.2012
vn -0.2321 0.9493 -0.2121
vn -0.2332 0.9506 -0.2049
vn 0.2407 -0.9471 0.2125
vn 0.2258 -0.9545 0.1946
vn 0.2252 -0.9492 0.2199
vn -0.4091 0.0647 0.9102
vn -0.4084 0.0667 0.9104
vn -0.9582 -0.1308 0.2545
vn -0.8337 -0.5518 0.0205
vn -0.9399 -0.3384 0.0459
vn -0.9829 -0.1468 0.1112
vn -0.9522 -0.1992 0.2316
vn -0.9469 -0.1769 0.2684
vn 0.7215 0.1500 0.6760
vn 0.2234 -0.4650 0.8566
vn 0.5679 0.1076 0.8160
vn 0.5584 0.2704 0.7843
vn 0.3763 0.2989 0.8770
vn 0.5616 0.2734 0.7810
vn -0.8675 -0.1155 0.4838
vn -0.5097 -0.3189 -0.7990
vn 0.9864 0.1333 0.0965
vn 0.8720 0.2982 -0.3882
vn 0.8808 -0.0771 -0.4672
vn 0.4516 0.0992 -0.8867
vn 0.3723 -0.2216 -0.9013
vn -0.0317 -0.1369 -0.9901
vn -0.1534 -0.2649 -0.9520
vn 0.1476 -0.4316 -0.8899
vn -0.8058 -0.2623 -0.5309
vn -0.8695 -0.4936 0.0193
vn -0.9405 0.0669 0.3331
vn -0.5361 -0.2681 0.8005
vn -0.5315 0.1331 0.8366
vn -0.0234 0.2746 0.9613
vn 0.1846 0.1319 0.9739
vn 0.7008 0.2960 0.6490
vn 0.7807 0.3440 0.5217
vn 0.0967 -0.3475 -0.9327
vn 0.9117 0.3156 0.2629
vn 0.3769 0.2945 0.8782
vn 0.2583 0.2600 0.9304
vn 0.2833 0.0450 0.9580
vn -0.9169 -0.2642 -0.2991
vn -0.5232 -0.2882 -0.8020
vn 0.1983 -0.1510 -0.9684
vn 0.2402 -0.9494 0.2022
vn -0.5398 0.6022 -0.5882
vn -0.7689 0.3833 -0.5117
vn -0.6545 -0.4348 -0.6186
vn -0.7937 -0.2997 -0.5294
vn 0.7750 -0.1210 0.6203
vn 0.8326 0.1514 0.5328
vn 0.5901 0.5342 0.6054
vn 0.5342 0.7785 0.3295
vn -0.0281 0.9996 0.0043
vn -0.1274 0.9918 0.0143
vn -0.6274 0.0075 0.7787
vn -0.6247 0.0125 0.7808
vn -0.6696 0.0087 0.7426
vn -0.5656 0.0528 0.8230
vn -0.6262 0.0134 0.7795
vn -0.4974 0.1582 0.8530
vn -0.5526 0.0438 0.8323
vn -0.6779 -0.0122 0.7351
vn -0.7198 0.0205 0.6939
vn -0.7015 0.0776 0.7085
vn -0.7042 0.0841 0.7050
vn -0.6312 0.1668 0.7575
vn -0.6170 0.1133 0.7787
vn 0.8325 -0.1399 -0.5361
vn 0.6270 -0.0070 -0.7790
vn 0.6239 -0.0050 -0.7815
vn 0.6427 0.0237 -0.7658
vn 0.4908 -0.0387 -0.8704
vn 0.5595 0.0298 -0.8283
vn 0.4813 -0.0244 -0.8762
vn 0.6272 -0.0070 -0.7788
vn 0.7025 0.0446 -0.7103
vn 0.6853 0.0428 -0.7270
vn 0.6687 0.1232 -0.7332
vn 0.6273 -0.0104 -0.7787
vn 0.5657 0.0182 -0.8244
vn -0.2011 0.9740 -0.1046
vn -0.6026 0.5777 -0.5505
vn -0.7363 0.3920 -0.5515
vn 0.6503 -0.5673 0.5053
vn 0.6746 -0.4041 0.6177
vn 0.7980 0.2761 0.5357
vn 0.4814 0.7247 0.4930
vn 0.1750 0.9839 0.0351
vn -0.7002 -0.3718 -0.6095
vn -0.6852 -0.5390 -0.4899
vn -0.0304 -0.9966 -0.0769
vn 0.0507 -0.9945 0.0920
vn 0.7451 -0.0005 -0.6669
vn 0.6905 0.0333 -0.7226
vn 0.4839 -0.0818 -0.8713
vn 0.5534 -0.0205 -0.8326
vn 0.5201 -0.0882 -0.8495
vn 0.5459 0.1172 -0.8296
vn 0.6230 -0.0032 -0.7822
vn 0.6872 0.0979 -0.7198
vn 0.6125 0.0605 -0.7882
vn 0.6269 0.0045 -0.7791
vn -0.6715 -0.5968 0.4393
vn -0.7602 -0.1084 0.6406
vn -0.7024 0.0219 0.7115
vn -0.5290 0.0819 0.8447
vn -0.5843 0.0607 0.8093
vn -0.6304 0.1331 0.7648
vn -0.6317 0.1257 0.7650
vn -0.7193 0.0597 0.6921
vn -0.6736 0.0536 0.7372
vn -0.0138 0.5058 -0.8625
vn 0.6347 0.5350 -0.5576
vn -0.4932 0.8544 0.1639
vn 0.0625 0.8480 -0.5264
vn 0.0625 0.8479 -0.5264
vn 0.8249 0.0481 0.5633
vn 0.8960 0.3766 0.2352
vn 0.8395 0.1310 -0.5273
vn 0.8297 0.0040 -0.5582
vn -0.9662 -0.0348 0.2553
vn -0.7790 -0.1985 0.5948
vn -0.4731 0.2076 0.8562
vn -0.1055 0.0015 0.9944
vn 0.3800 0.4551 0.8053
vn 0.1637 -0.1616 -0.9732
vn 0.0639 -0.0904 -0.9939
vn -0.4517 -0.4117 -0.7915
vn -0.7386 -0.1438 -0.6586
vn -0.8980 -0.4287 -0.0996
vn 0.2425 -0.9495 0.1993
vn 0.2333 -0.9499 0.2080
vn 0.2469 -0.9473 0.2042
vn 0.2417 -0.9494 0.2006
vn 0.2381 -0.9501 0.2017
vn -0.8928 -0.0087 -0.4503
vn 0.8928 0.0087 0.4503
vn 0.2407 -0.9494 0.2018
vn 0.2404 -0.9494 0.2022
vn 0.2402 -0.9494 0.2021
vn 0.2401 -0.9494 0.2022
vn 0.8751 0.1837 0.4477
vn 0.6528 0.3895 0.6497
vn 0.3628 0.2519 0.8972
vn 0.3437 0.2011 0.9173
vn -0.6009 -0.0605 0.7970
vn -0.8145 -0.0310 0.5794
vn -0.9710 -0.1600 0.1775
vn -0.9200 -0.3835 -0.0811
vn -0.8951 -0.1708 -0.4119
vn -0.6422 -0.4032 -0.6520
vn -0.3643 -0.3048 -0.8800
vn 0.0950 -0.2375 -0.9667
vn -0.0236 -0.1528 -0.9880
vn 0.6046 -0.0979 -0.7905
vn 0.5547 -0.0568 -0.8301
vn 0.8163 0.1917 -0.5449
vn 0.9794 0.0796 -0.1854
vn -0.2986 0.9277 -0.2240
vn -0.2834 0.9374 -0.2025
vn -0.2953 0.9357 -0.1929
vn -0.2873 0.9459 -0.1508
vn -0.1921 0.9599 -0.2041
vn -0.2061 0.9556 -0.2105
vn -0.1878 0.9518 -0.2424
vn -0.1999 0.9444 -0.2610
vn -0.2281 0.9424 -0.2447
vn -0.2474 0.9286 -0.2767
vn -0.2628 0.9274 -0.2661
vn -0.2628 0.9350 -0.2380
vn -0.2699 0.9510 -0.1506
vn -0.2696 0.9497 -0.1591
vn -0.2640 0.9531 -0.1477
vn -0.2169 0.9630 -0.1600
vn -0.2149 0.9615 -0.1713
vn -0.1741 0.9714 -0.1616
vn -0.1784 0.9710 -0.1594
vn -0.3215 -0.0328 -0.9464
vn -0.5342 -0.5125 -0.6723
vn -0.9294 -0.1388 -0.3421
vn 0.5360 0.1796 0.8249
vn 0.8234 0.4648 0.3255
vn 0.9978 0.0378 0.0550
vn 0.6880 0.2917 -0.6645
vn 0.5522 -0.2983 -0.7785
vn -0.8827 -0.3820 0.2738
vn -0.8527 0.1489 0.5008
vn -0.1994 -0.0958 0.9752
vn 0.1274 0.4283 0.8946
vn -0.4933 -0.2441 -0.8349
vn 0.9692 0.2244 -0.1016
vn 0.9030 0.2987 0.3088
vn -0.1174 0.1153 0.9864
vn -0.1500 0.1397 0.9788
vn -0.5238 0.0847 0.8476
vn -0.8845 -0.2389 0.4007
vn 0.8206 0.4369 0.3684
vn -0.8206 -0.4369 -0.3684
vn -0.2389 0.9440 -0.2275
vn -0.2260 0.9549 -0.1928
vn 0.9591 0.2419 0.1472
vn 0.9049 0.0468 0.4231
vn -0.4350 0.1534 0.8873
vn -0.7394 -0.4060 0.5371
vn -0.6191 -0.5992 -0.5076
vn -0.8009 -0.5021 -0.3264
vn 0.3621 0.1035 -0.9264
vn 0.2063 -0.9565 0.2062
vn -0.2453 -0.3940 0.8858
vn -0.1647 -0.8150 0.5556
vn 0.3109 0.7016 0.6411
vn -0.8085 0.4084 -0.4236
vn -0.1491 0.9888 -0.0109
vn -0.3028 0.9232 -0.2366
vn 0.1285 -0.9038 0.4083
vn 0.0607 -0.8231 0.5647
vn -0.2313 0.9508 -0.2062
vn -0.2337 0.9483 -0.2146
vn 0.6018 -0.1661 -0.7812
vn 0.0859 -0.9962 -0.0155
s off
f 4//1 1//1 2//1
f 4//2 3//2 1//2
f 7//3 3//3 5//3
f 7//4 1//4 3//4
f 4//5 5//5 3//5
f 4//6 6//6 5//6
f 6//7 2//7 7//7
f 6//8 4//8 2//8
f 7//9 2//9 1//9
f 6//10 7//10 5//10
f 28//11 25//11 8//11
f 25//12 9//12 8//12
f 9//13 44//13 8//13
f 43//14 23//14 10//14
f 10//15 11//15 12//15
f 10//16 23//16 11//16
f 13//17 10//17 12//17
f 18//18 15//18 14//18
f 15//19 16//19 14//19
f 15//20 12//20 16//20
f 15//21 17//21 12//21
f 20//22 44//22 9//22
f 20//23 9//23 19//23
f 55//24 20//24 19//24
f 21//25 55//25 19//25
f 52//26 19//26 22//26
f 52//27 21//27 19//27
f 50//28 52//28 22//28
f 50//29 22//29 23//29
f 45//30 50//30 23//30
f 43//31 45//31 23//31
f 12//32 24//32 13//32
f 12//33 17//33 24//33
f 37//34 18//34 14//34
f 37//35 14//35 25//35
f 28//36 37//36 25//36
f 31//37 66//37 24//37
f 31//38 24//38 17//38
f 27//39 29//39 33//39
f 33//40 29//40 34//40
f 35//41 34//41 29//41
f 26//42 33//42 36//42
f 34//43 35//43 30//43
f 34//44 30//44 32//44
f 33//45 32//45 36//45
f 33//46 34//46 32//46
f 27//47 33//47 26//47
f 26//48 36//48 28//48
f 28//49 36//49 37//49
f 36//50 63//50 37//50
f 18//51 37//51 63//51
f 66//52 35//52 24//52
f 30//53 35//53 66//53
f 24//54 35//54 13//54
f 10//55 38//55 39//55
f 14//56 23//56 19//56
f 14//57 12//57 23//57
f 25//58 14//58 9//58
f 9//59 14//59 19//59
f 16//60 12//60 14//60
f 22//61 19//61 23//61
f 11//62 23//62 12//62
f 8//63 40//63 41//63
f 10//64 39//64 43//64
f 42//65 46//65 39//65
f 44//66 40//66 8//66
f 40//67 56//67 39//67
f 43//68 39//68 46//68
f 44//69 58//69 40//69
f 56//70 40//70 58//70
f 56//71 42//71 39//71
f 8//72 41//72 28//72
f 13//73 38//73 10//73
f 29//74 41//74 38//74
f 27//75 26//75 41//75
f 13//76 35//76 38//76
f 29//77 38//77 35//77
f 28//78 41//78 26//78
f 41//79 29//79 27//79
f 46//80 42//80 47//80
f 47//81 42//81 54//81
f 43//82 46//82 45//82
f 45//83 46//83 48//83
f 47//84 54//84 51//84
f 46//85 47//85 48//85
f 50//86 45//86 48//86
f 49//87 48//87 47//87
f 51//88 49//88 47//88
f 49//89 50//89 48//89
f 52//90 50//90 49//90
f 54//91 42//91 56//91
f 49//92 51//92 53//92
f 49//93 53//93 52//93
f 52//94 53//94 21//94
f 51//95 54//95 56//95
f 55//96 21//96 53//96
f 53//97 51//97 57//97
f 51//98 56//98 57//98
f 53//99 57//99 55//99
f 55//100 57//100 58//100
f 20//101 55//101 58//101
f 57//102 56//102 58//102
f 20//103 58//103 44//103
f 40//104 38//104 41//104
f 40//105 39//105 38//105
f 60//106 59//106 15//106
f 60//107 15//107 18//107
f 59//108 17//108 15//108
f 30//109 62//109 32//109
f 61//110 36//110 32//110
f 32//111 62//111 61//111
f 61//112 62//112 60//112
f 60//113 62//113 59//113
f 63//114 61//114 64//114
f 61//115 63//115 36//115
f 67//116 64//116 61//116
f 60//117 64//117 67//117
f 60//118 18//118 64//118
f 18//119 63//119 64//119
f 30//120 65//120 62//120
f 66//121 65//121 30//121
f 66//122 31//122 65//122
f 17//123 59//123 65//123
f 17//124 65//124 31//124
f 65//125 59//125 62//125
f 67//126 61//126 60//126
f 80//127 71//127 72//127
f 75//128 74//128 90//128
f 73//129 74//129 75//129
f 76//130 73//130 75//130
f 76//131 77//131 73//131
f 76//132 78//132 77//132
f 78//133 79//133 77//133
f 78//134 80//134 79//134
f 72//135 71//135 81//135
f 71//136 82//136 81//136
f 71//137 85//137 84//137
f 69//138 84//138 85//138
f 69//139 85//139 70//139
f 70//140 86//140 69//140
f 70//141 87//141 86//141
f 70//142 88//142 87//142
f 89//143 88//143 90//143
f 91//144 89//144 90//144
f 90//145 92//145 91//145
f 90//146 74//146 92//146
f 88//147 111//147 87//147
f 88//148 89//148 111//148
f 71//149 83//149 82//149
f 71//150 84//150 83//150
f 80//151 68//151 79//151
f 80//152 72//152 68//152
f 76//153 93//153 97//153
f 76//153 75//153 93//153
f 75//153 90//153 93//153
f 90//153 94//153 93//153
f 90//153 88//153 94//153
f 88//153 95//153 94//153
f 71//153 96//153 99//153
f 71//153 80//153 96//153
f 80//153 78//153 96//153
f 78//153 97//153 96//153
f 78//153 76//153 97//153
f 88//153 70//153 95//153
f 70//153 98//153 95//153
f 70//153 85//153 98//153
f 85//153 99//153 98//153
f 85//153 71//153 99//153
f 106//154 101//154 107//154
f 101//155 102//155 107//155
f 101//156 82//156 102//156
f 101//157 81//157 82//157
f 91//158 100//158 89//158
f 91//159 103//159 100//159
f 103//160 104//160 100//160
f 103//161 105//161 104//161
f 105//162 106//162 104//162
f 106//163 107//163 104//163
f 87//164 108//164 110//164
f 110//165 84//165 87//165
f 109//166 83//166 84//166
f 108//167 87//167 111//167
f 110//168 109//168 84//168
f 117//169 111//169 116//169
f 117//170 108//170 111//170
f 109//171 112//171 83//171
f 112//172 113//172 83//172
f 112//173 114//173 113//173
f 114//174 115//174 113//174
f 114//175 116//175 115//175
f 114//176 117//176 116//176
f 119//177 92//177 118//177
f 120//178 118//178 79//178
f 118//179 74//179 79//179
f 92//180 74//180 118//180
f 121//181 79//181 68//181
f 125//182 121//182 126//182
f 121//183 68//183 126//183
f 121//184 120//184 79//184
f 119//185 122//185 92//185
f 119//186 123//186 122//186
f 123//187 124//187 122//187
f 123//188 125//188 124//188
f 125//189 126//189 124//189
f 110//190 118//190 120//190
f 110//191 108//191 118//191
f 108//192 119//192 118//192
f 114//193 112//193 125//193
f 112//194 121//194 125//194
f 112//195 109//195 121//195
f 109//196 120//196 121//196
f 109//197 110//197 120//197
f 108//198 117//198 119//198
f 117//199 123//199 119//199
f 117//200 114//200 123//200
f 114//201 125//201 123//201
f 91//202 92//202 103//202
f 92//203 122//203 103//203
f 81//204 101//204 68//204
f 126//205 68//205 101//205
f 81//206 68//206 72//206
f 101//207 127//207 126//207
f 101//208 106//208 127//208
f 122//209 105//209 103//209
f 122//210 127//210 105//210
f 127//211 106//211 105//211
f 89//212 100//212 111//212
f 82//213 83//213 102//213
f 83//214 113//214 102//214
f 100//215 104//215 111//215
f 104//216 116//216 111//216
f 104//217 107//217 116//217
f 107//218 115//218 116//218
f 113//219 107//219 102//219
f 113//220 115//220 107//220
f 127//221 124//221 126//221
f 127//222 122//222 124//222
f 84//223 86//223 87//223
f 84//223 69//223 86//223
f 79//224 74//224 77//224
f 73//225 77//225 74//225
f 131//226 128//226 94//226
f 128//227 93//227 94//227
f 128//228 97//228 93//228
f 128//229 129//229 97//229
f 134//230 98//230 99//230
f 134//231 130//231 98//231
f 130//232 95//232 98//232
f 130//233 131//233 95//233
f 131//234 94//234 95//234
f 129//235 132//235 97//235
f 132//236 96//236 97//236
f 132//237 133//237 96//237
f 133//238 99//238 96//238
f 133//239 134//239 99//239
f 131//240 130//240 134//240
f 132//241 129//241 128//241
f 133//242 132//242 134//242
f 132//243 131//243 134//243
f 132//244 128//244 131//244
f 136//245 137//245 135//245
f 137//246 136//246 135//246
f 144//153 145//153 139//153
f 147//153 138//153 148//153
f 154//247 144//247 153//247
f 141//153 148//153 138//153
f 144//248 142//248 153//248
f 150//249 140//249 138//249
f 150//153 138//153 147//153
f 151//153 143//153 154//153
f 151//153 147//153 143//153
f 142//153 140//153 152//153
f 152//250 153//250 142//250
f 148//153 143//153 147//153
f 145//153 154//153 143//153
f 146//153 138//153 140//153
f 149//153 145//153 143//153
f 150//153 152//153 140//153
f 154//153 145//153 144//153
f 142//251 144//251 164//251
f 142//252 164//252 157//252
f 140//253 142//253 156//253
f 142//254 157//254 156//254
f 138//255 146//255 166//255
f 138//256 166//256 167//256
f 141//257 167//257 155//257
f 148//258 141//258 155//258
f 148//259 155//259 160//259
f 143//260 148//260 160//260
f 149//261 143//261 161//261
f 145//262 149//262 162//262
f 149//263 161//263 162//263
f 139//264 145//264 159//264
f 145//265 162//265 159//265
f 139//266 159//266 158//266
f 144//267 139//267 158//267
f 160//268 155//268 168//268
f 155//269 169//269 168//269
f 155//270 167//270 169//270
f 167//271 166//271 169//271
f 163//272 158//272 173//272
f 158//273 170//273 173//273
f 158//274 159//274 170//274
f 159//275 162//275 170//275
f 162//276 171//276 170//276
f 162//277 161//277 171//277
f 161//278 160//278 171//278
f 160//279 168//279 171//279
f 166//280 172//280 169//280
f 166//281 165//281 172//281
f 165//282 156//282 172//282
f 156//283 157//283 172//283
f 157//284 173//284 172//284
f 157//285 164//285 173//285
f 164//286 163//286 173//286
f 172//287 152//287 150//287
f 172//288 173//288 152//288
f 173//289 153//289 152//289
f 171//290 168//290 151//290
f 168//291 147//291 151//291
f 168//292 169//292 147//292
f 169//293 150//293 147//293
f 169//294 172//294 150//294
f 173//295 170//295 153//295
f 170//296 154//296 153//296
f 170//297 171//297 154//297
f 171//298 151//298 154//298
f 143//299 160//299 161//299
f 144//300 158//300 163//300
f 144//301 163//301 164//301
f 146//302 156//302 165//302
f 146//303 140//303 156//303
f 146//304 165//304 166//304
f 141//305 138//305 167//305
f 175//306 176//306 174//306
f 176//307 175//307 174//307
f 180//308 177//308 178//308
f 180//309 179//309 177//309
f 183//310 179//310 181//310
f 183//311 177//311 179//311
f 180//312 181//312 179//312
f 180//313 182//313 181//313
f 182//314 178//314 183//314
f 182//315 180//315 178//315
f 183//316 178//316 177//316
f 182//317 183//317 181//317
f 185//318 186//318 187//318
f 185//319 184//319 186//319
f 191//320 187//320 186//320
f 191//321 188//321 187//321
f 184//322 189//322 190//322
f 184//323 185//323 189//323
f 188//324 190//324 189//324
f 188//325 191//325 190//325
f 185//326 188//326 189//326
f 185//327 187//327 188//327
f 186//328 190//328 191//328
f 186//329 184//329 190//329
