# Blender v2.79 (sub 0) OBJ File: 'ROBOT5.blend'
# www.blender.org
v -0.178903 -1.209118 -0.015085
v -0.364213 -1.209461 0.037648
v -0.125589 -1.208867 0.177629
v -0.310858 -1.203879 0.230270
v -0.125633 -1.494635 0.199911
v -0.270487 -1.491799 0.145645
v -0.270888 -1.497810 -0.048440
v -0.450473 -1.132756 0.161917
v -0.460061 -1.073095 0.010073
v 0.420614 -1.143424 -0.071208
v 0.421757 -1.080717 -0.041687
v 0.365589 -1.074530 0.272656
v 0.410850 -1.252954 0.127297
v -0.148475 -1.066857 0.463184
v 0.110615 -1.144504 0.474523
v 0.140882 -1.069986 0.456263
v 0.305341 -1.148218 0.345373
v -0.143093 -1.142894 0.467292
v -0.356270 -1.077664 -0.231620
v -0.414610 -1.236949 -0.128860
v -0.279902 -1.268431 -0.293264
v -0.132051 -1.082325 -0.380001
v 0.200572 -1.083804 -0.352563
v 0.365513 -1.264275 0.249604
v -0.346188 -1.068217 0.343316
v -0.195119 -1.421909 0.293969
v -0.080401 -1.444026 0.260801
v -0.336749 -1.282977 0.330651
v 0.158673 -1.447272 0.197590
v 0.281872 -1.381042 0.255129
v 0.311527 -1.241177 0.335575
v 0.131333 -1.379357 0.382297
v 0.006199 -1.426844 0.335277
v 0.139562 -1.419255 0.316526
v 0.329120 -1.389306 0.151840
v -0.162519 -1.372315 0.393911
v -0.244853 -1.251381 0.414263
v 0.213576 -1.136728 0.177324
v 0.117044 -1.142577 -0.183104
v -0.243418 -1.137794 -0.086642
v -0.146894 -1.132683 0.273799
v 0.129974 -1.446662 -0.181172
v 0.311294 -1.274124 -0.233517
v -0.441393 -1.252437 -0.032079
v 0.230551 -1.277436 -0.306222
v 0.213851 -1.402278 -0.217262
v 0.026592 -1.422535 -0.268099
v 0.086475 -1.335285 -0.343641
v -0.087740 -1.326764 -0.354309
v 0.067317 -1.252512 -0.383972
v -0.153243 -1.415967 -0.248727
v -0.157947 -1.257550 -0.364059
v -0.245316 -1.355208 -0.266735
v -0.120450 -1.447743 -0.170349
v -0.353747 -1.274700 -0.219637
v -0.255089 -1.441120 -0.077842
v -0.325542 -1.376101 -0.148516
v -0.405756 -1.337819 -0.043911
v 0.276772 -1.146567 0.452411
v -0.050489 -1.142127 0.541804
v -0.060835 -1.373367 0.539733
v 0.268138 -1.378360 0.450297
v -0.170680 -1.259202 0.448967
v -0.117247 -1.254349 0.488338
v 0.291274 -1.277630 0.377382
v 0.304403 -1.336041 0.289861
v -0.077828 -1.288364 0.531753
v -0.356079 0.011146 -0.193841
v -0.087294 -0.770812 0.482279
v 0.192074 -0.883953 0.450070
v -0.461293 -0.881690 0.083877
v -0.388199 -0.266143 -0.177162
v 0.074372 -0.778423 -0.396433
v 0.362319 -0.685840 -0.209357
v 0.268816 -0.888997 -0.299333
v -0.001984 -0.887760 -0.401554
v -0.216458 -0.750177 -0.342727
v -0.277113 -0.885288 -0.303567
v -0.366790 -0.679692 -0.203593
v -0.376397 -0.883896 -0.185556
v -0.442865 -0.163023 -0.173139
v -0.406319 -0.237150 0.258324
v -0.352130 0.016046 0.281160
v -0.374479 -0.678308 0.297684
v -0.200316 -0.881272 0.449419
v 0.191413 -0.751882 0.438119
v 0.357838 -0.681738 0.290872
v 0.407852 -0.886974 0.194074
v 0.426394 -0.197246 0.173501
v 0.424249 -0.888642 -0.063952
v 0.397664 -0.252715 -0.177541
v 0.352734 0.006378 -0.197957
v 0.221049 -0.887942 -0.178506
v 0.311220 -0.887244 0.039579
v 0.202062 -0.884963 0.294039
v -0.285752 -0.884062 -0.110273
v -0.048824 -0.886694 -0.277993
v -0.064828 -0.882756 0.357015
v -0.299869 -0.882151 0.190635
v 0.473623 -0.099937 0.261685
v -0.435498 0.241166 -0.183782
v -0.456434 0.158687 0.264640
v 0.463461 0.129681 -0.187470
v 0.362650 0.353398 0.259502
v 0.301110 0.382808 -0.188201
v -0.056512 0.496154 -0.187148
v -0.172801 0.481794 0.261327
v 0.232459 -0.099638 0.287729
v -0.233341 -0.111207 0.290056
v 0.027048 -0.248621 0.289619
v 0.360358 0.016657 0.273126
v -0.222343 0.134283 0.288531
v -0.300108 0.201871 0.275912
v -0.041345 0.269448 0.286843
v -0.083221 0.362238 0.273253
v 0.218631 0.293994 0.272214
v 0.218202 0.160271 0.286240
v 0.090710 -0.232479 -0.208370
v 0.246715 -0.057789 -0.210174
v -0.135874 -0.209355 -0.207411
v -0.269290 0.042198 -0.208273
v 0.307481 0.181205 -0.201051
v 0.183261 0.196905 -0.211394
v 0.010840 0.358691 -0.211910
v -0.072384 0.256437 -0.210512
v -0.302242 0.201011 -0.196969
v 0.026653 0.391719 -0.187801
v 0.239587 -1.074397 -0.175909
v -0.069253 -1.073081 -0.266350
v 0.028756 -1.069960 0.362400
v 0.273117 -1.071987 0.211918
v -0.243847 -1.070029 -0.162480
v -0.328792 -1.069232 0.077443
v -0.206576 -1.068515 0.292723
v 0.120379 -1.512885 -0.048358
v 0.149479 -1.523680 0.094849
v 0.153652 -1.387802 -0.082554
v -0.111809 -1.068351 0.470016
v 0.132558 -1.075130 -0.377045
v 0.306370 -1.071947 0.348130
v -0.308441 -1.067671 0.359296
v 0.429962 -1.074196 0.115435
v -0.419323 -1.069647 -0.094199
v 0.368077 -1.075539 -0.179914
v -0.167590 -1.072973 -0.359922
v 0.110122 -1.069886 0.466990
v -0.243249 -1.068644 0.272251
v -0.443451 -1.068087 0.137093
v -0.350602 -1.070928 -0.228681
v 0.127308 -1.070701 0.351347
v -0.321898 -1.069807 -0.010103
v 0.310329 -1.073640 0.071643
v 0.226848 -1.074551 -0.172097
v -0.108246 -1.072863 -0.274527
v -0.379274 -0.888160 0.283771
v 0.311663 -0.890568 0.350779
v 0.410224 -0.893765 0.178817
v 0.233579 -0.894632 -0.323662
v 0.055722 -0.895186 -0.387802
v -0.447269 -0.888286 0.015374
v -0.371127 -0.892910 -0.196583
v -0.179771 -0.893313 -0.363094
v 0.368134 -0.895271 -0.182029
v 0.428377 -0.898361 -0.008554
v 0.150597 -0.892154 0.453828
v -0.033453 -0.891388 0.481106
v -0.211006 -0.887986 0.432163
v -0.327867 -0.882576 0.088319
v -0.137558 -0.882350 0.341845
v 0.023847 -0.887235 -0.284958
v -0.248208 -0.884618 -0.159943
v 0.226281 -0.885187 0.284205
v 0.295721 -0.887796 -0.069533
v -0.231332 -1.502456 0.174259
v -0.263126 -1.517687 0.032032
v -0.245378 -1.481089 0.127954
v 0.205548 -1.217657 -0.113135
v 0.019344 -1.218019 -0.063648
v 0.255488 -1.217397 0.080480
v 0.069327 -1.212428 0.129876
v 0.255086 -1.503165 0.102764
v 0.111201 -1.500345 0.045976
v 0.114189 -1.506361 -0.148086
v 0.327267 -1.153438 -0.147869
v 0.138289 -1.166109 -0.185892
v -0.433784 -0.959659 0.084390
v -0.263760 -1.162441 -0.078276
v -0.168496 -1.155779 0.277390
v 0.233534 -1.161958 0.169817
v 0.381679 -1.182412 0.055610
v -0.290344 -1.242570 0.116343
vn -0.0094 0.9996 -0.0264
vn 0.0246 0.9997 -0.0081
vn 0.8627 -0.0394 -0.5041
vn 0.9291 -0.2664 -0.2567
vn 0.2744 0.0747 0.9587
vn -0.3390 -0.3087 0.8887
vn -0.9503 -0.3110 0.0116
vn -0.9406 -0.2103 0.2666
vn -0.2688 0.1946 -0.9433
vn -0.0312 -0.9990 0.0310
vn -0.8543 -0.0679 0.5153
vn -0.7963 0.5443 0.2641
vn -0.9939 -0.1082 0.0202
vn 0.7935 0.0847 -0.6026
vn 0.9790 -0.1011 0.1769
vn 0.7876 0.2506 -0.5629
vn 0.9812 0.1446 0.1280
vn -0.0281 0.0519 0.9983
vn 0.0257 0.2280 0.9733
vn 0.6305 -0.0666 0.7733
vn 0.5240 0.3415 0.7802
vn -0.9616 -0.0362 -0.2719
vn -0.9153 0.0807 -0.3946
vn -0.8381 -0.0438 -0.5437
vn -0.7029 -0.0521 -0.7094
vn -0.5518 0.0057 -0.8340
vn -0.5056 0.0753 -0.8595
vn -0.0861 -0.0776 -0.9933
vn 0.0821 0.1193 -0.9895
vn 0.4059 -0.1528 -0.9011
vn 0.6690 -0.0734 -0.7396
vn 0.9381 -0.0421 0.3438
vn 0.8028 -0.0722 0.5919
vn -0.4738 0.0140 0.8805
vn -0.5182 0.0442 0.8541
vn -0.6573 -0.0731 0.7501
vn 0.7575 -0.3287 0.5640
vn 0.8469 0.0003 0.5317
vn 0.0356 -0.9821 0.1852
vn 0.0890 -0.9662 0.2419
vn 0.3741 -0.8875 0.2692
vn -0.1183 -0.8736 0.4721
vn 0.3437 -0.9104 0.2301
vn 0.4210 -0.7512 0.5084
vn 0.0104 -0.7172 0.6968
vn 0.1218 -0.8418 0.5259
vn -0.0890 -0.9429 0.3210
vn -0.5318 -0.6766 0.5092
vn -0.5030 -0.4650 0.7285
vn -0.4204 -0.4214 0.8035
vn -0.4270 -0.0410 0.9033
vn 0.8018 -0.4951 0.3346
vn 0.6886 -0.6265 0.3651
vn 0.8463 -0.4584 0.2713
vn -0.0097 -0.9998 0.0188
vn 0.0072 0.9998 -0.0177
vn 0.0086 0.9998 -0.0171
vn 0.0025 0.9999 -0.0155
vn 0.0046 0.9998 -0.0169
vn 0.0105 0.9999 -0.0119
vn 0.0063 0.9997 -0.0219
vn 0.0110 0.9998 -0.0177
vn -0.0055 -0.9999 0.0157
vn -0.2621 -0.6577 0.7062
vn 0.3852 0.0222 0.9226
vn 0.5364 -0.7068 0.4612
vn 0.2587 0.0181 0.9658
vn 0.2221 -0.0453 0.9740
vn 0.2755 -0.0182 0.9611
vn 0.2322 0.0193 0.9725
vn 0.2594 0.0172 0.9656
vn 0.2712 -0.6208 -0.7355
vn -0.5369 -0.7272 -0.4277
vn -0.2587 -0.0173 -0.9658
vn -0.2813 -0.0200 -0.9594
vn -0.2568 -0.0200 -0.9663
vn -0.2534 -0.0183 -0.9672
vn -0.2708 -0.0220 -0.9624
vn -0.2558 -0.0143 -0.9666
vn 0.2264 -0.8353 -0.5011
vn -0.0071 -0.9657 -0.2596
vn 0.5825 -0.5219 -0.6231
vn 0.4124 -0.5646 -0.7149
vn -0.0717 -0.9344 -0.3488
vn 0.2521 -0.7265 -0.6392
vn 0.3618 -0.3394 -0.8683
vn 0.0137 -0.6599 -0.7513
vn -0.0996 -0.7288 -0.6775
vn 0.0341 -0.4314 -0.9015
vn -0.0810 -0.2192 -0.9723
vn 0.0079 -0.9965 0.0828
vn -0.2821 -0.6394 -0.7152
vn -0.3594 -0.4775 -0.8018
vn -0.4285 -0.4160 -0.8021
vn -0.2370 -0.9308 -0.2782
vn -0.6134 -0.4441 -0.6530
vn -0.4352 -0.7884 -0.4347
vn -0.4063 -0.8375 -0.3654
vn -0.6413 -0.5521 -0.5328
vn -0.7666 -0.4978 -0.4057
vn -0.8293 -0.4007 -0.3894
vn -0.5821 -0.7984 -0.1542
vn -0.8943 -0.3316 -0.3005
vn -0.0069 -0.9998 0.0160
vn -0.0083 -0.9998 0.0185
vn 0.0113 0.9999 -0.0082
vn 0.0069 0.9998 -0.0188
vn 0.0107 0.9999 -0.0126
vn 0.0004 -0.9999 0.0138
vn -0.0236 -0.9997 0.0092
vn -0.0072 -0.9995 0.0292
vn 0.2620 -0.0204 0.9649
vn 0.2632 -0.0186 0.9646
vn -0.5957 0.0634 0.8007
vn -0.7784 -0.3192 0.5405
vn -0.7731 -0.0957 0.6270
vn -0.7045 0.0833 0.7048
vn -0.6269 0.0017 0.7791
vn -0.5940 0.0142 0.8044
vn 0.9822 -0.1738 0.0715
vn 0.5261 -0.6688 0.5253
vn 0.9390 -0.2040 0.2770
vn 0.9652 -0.0410 0.2583
vn 0.8955 0.0127 0.4449
vn 0.9665 -0.0383 0.2537
vn -0.3875 0.0091 0.9218
vn -0.9537 -0.0141 -0.3004
vn 0.8265 -0.1388 -0.5456
vn 0.5063 0.1436 -0.8503
vn 0.3454 -0.1982 -0.9173
vn -0.1642 0.1602 -0.9733
vn -0.3340 -0.1210 -0.9348
vn -0.6573 0.0778 -0.7496
vn -0.7652 -0.0208 -0.6435
vn -0.5599 -0.2662 -0.7846
vn -0.9938 0.0592 0.0943
vn -0.7868 -0.2550 0.5620
vn -0.4725 0.2304 0.8506
vn -0.0035 -0.2818 0.9595
vn 0.1499 0.0898 0.9846
vn 0.6437 0.0722 0.7619
vn 0.7586 -0.1174 0.6408
vn 0.9977 -0.0249 0.0636
vn 0.9960 0.0263 -0.0857
vn -0.5960 -0.1653 -0.7858
vn 0.9291 0.0189 -0.3693
vn 0.8953 0.0081 0.4454
vn 0.8280 -0.0055 0.5607
vn 0.7940 -0.2210 0.5663
vn -0.9380 0.0384 0.3444
vn -0.9556 0.0190 -0.2942
vn -0.4795 0.0028 -0.8775
vn -0.0068 -1.0000 0.0060
vn -0.5551 0.8234 -0.1176
vn -0.7483 0.6578 0.0860
vn -0.9898 -0.1242 -0.0691
vn -0.9959 0.0205 0.0879
vn 0.9015 -0.4327 -0.0054
vn 0.9791 -0.1713 -0.1097
vn 0.9664 0.2370 0.0993
vn 0.8391 0.5380 -0.0800
vn 0.3021 0.9530 0.0211
vn 0.2325 0.9683 0.0913
vn 0.0046 0.0064 1.0000
vn 0.0093 0.0100 0.9999
vn -0.0477 0.0253 0.9985
vn 0.0910 0.0250 0.9955
vn 0.0078 0.0115 0.9999
vn 0.1928 0.1017 0.9759
vn 0.1032 0.0114 0.9946
vn -0.0650 0.0091 0.9978
vn -0.1099 0.0588 0.9922
vn -0.0694 0.1053 0.9920
vn -0.0714 0.1129 0.9910
vn 0.0401 0.1625 0.9859
vn 0.0461 0.1041 0.9935
vn 0.2486 -0.2318 -0.9405
vn -0.0048 -0.0057 -1.0000
vn -0.0079 -0.0026 -1.0000
vn 0.0244 0.0168 -0.9996
vn -0.1698 0.0165 -0.9853
vn -0.0722 0.0559 -0.9958
vn -0.1756 0.0336 -0.9839
vn -0.0046 -0.0059 -1.0000
vn 0.1082 0.0104 -0.9941
vn 0.0850 0.0164 -0.9962
vn 0.0949 0.0979 -0.9907
vn -0.0056 -0.0091 -0.9999
vn -0.0690 0.0425 -0.9967
vn 0.1016 0.9938 0.0452
vn -0.5867 0.8083 -0.0488
vn -0.7452 0.6659 0.0346
vn 0.5982 -0.8012 -0.0164
vn 0.7354 -0.6753 0.0557
vn 0.9953 -0.0451 -0.0857
vn 0.8805 0.4672 0.0803
vn 0.4650 0.8814 -0.0828
vn -0.9979 -0.0549 -0.0332
vn -0.9692 -0.2412 0.0503
vn -0.3875 -0.9210 -0.0406
vn -0.2265 -0.9732 0.0396
vn 0.1510 -0.0516 -0.9872
vn 0.0885 0.0053 -0.9961
vn -0.1892 -0.0224 -0.9817
vn -0.0953 0.0106 -0.9954
vn -0.1516 -0.0418 -0.9876
vn -0.0549 0.1423 -0.9883
vn -0.0085 -0.0005 -1.0000
vn 0.1084 0.0666 -0.9919
vn 0.0006 0.0636 -0.9980
vn -0.0013 0.0052 -1.0000
vn -0.4238 -0.4866 0.7639
vn -0.2127 -0.0425 0.9762
vn -0.0862 0.0522 0.9949
vn 0.1401 0.0391 0.9894
vn 0.0715 0.0398 0.9966
vn 0.0343 0.1289 0.9911
vn 0.0310 0.1222 0.9920
vn -0.0980 0.0962 0.9905
vn -0.0394 0.0699 0.9968
vn -0.3622 0.6565 -0.6617
vn 0.3064 0.4612 -0.8327
vn 0.0083 0.8991 0.4377
vn 0.0040 0.8938 -0.4485
vn 0.9585 -0.2734 -0.0812
vn 0.9206 0.0862 -0.3809
vn 0.3459 0.0213 -0.9380
vn 0.2795 -0.0903 -0.9559
vn -0.5704 0.1562 0.8064
vn -0.2827 -0.1139 0.9524
vn 0.2284 0.1419 0.9632
vn 0.5154 -0.1727 0.8393
vn 0.9055 0.1742 0.3869
vn -0.5113 0.0023 -0.8594
vn -0.5742 0.0988 -0.8127
vn -0.9362 -0.1180 -0.3311
vn -0.9824 0.1805 -0.0472
vn -0.8579 -0.1624 0.4876
vn -0.0068 -1.0000 0.0024
vn -0.0086 -0.9999 0.0149
vn 0.0000 -1.0000 0.0033
vn -0.0066 -1.0000 0.0039
vn -0.0088 -0.9999 0.0070
vn -0.9286 0.3049 0.2117
vn 0.9286 -0.3049 -0.2117
vn -0.0068 -1.0000 0.0061
vn -0.0069 -1.0000 0.0060
vn -0.0067 -1.0000 0.0054
vn -0.0067 -1.0000 0.0059
vn -0.0069 -1.0000 0.0061
vn 0.9700 -0.1342 -0.2026
vn 0.9927 0.0755 0.0943
vn 0.8826 -0.0326 0.4691
vn 0.8642 -0.0800 0.4968
vn 0.0131 -0.0683 0.9976
vn -0.2643 0.0567 0.9628
vn -0.6605 0.0545 0.7489
vn -0.8486 -0.1178 0.5158
vn -0.9593 0.1441 0.2430
vn -0.9906 -0.0906 -0.1027
vn -0.8904 -0.0207 -0.4548
vn -0.5823 -0.0538 -0.8112
vn -0.6552 0.0602 -0.7531
vn -0.0574 -0.0840 -0.9948
vn -0.1045 -0.0246 -0.9942
vn 0.3377 0.0882 -0.9371
vn 0.6362 -0.1312 -0.7603
vn -0.0561 0.9983 0.0138
vn -0.0290 0.9994 0.0209
vn -0.0326 0.9988 0.0358
vn 0.0016 0.9980 0.0636
vn 0.0445 0.9983 -0.0377
vn 0.0290 0.9990 -0.0340
vn 0.0222 0.9973 -0.0702
vn -0.0002 0.9970 -0.0771
vn -0.0119 0.9988 -0.0467
vn -0.0496 0.9970 -0.0594
vn -0.0549 0.9976 -0.0415
vn -0.0357 0.9992 -0.0197
vn 0.0161 0.9985 0.0527
vn 0.0110 0.9989 0.0459
vn 0.0230 0.9984 0.0513
vn 0.0535 0.9985 0.0121
vn 0.0477 0.9989 0.0020
vn 0.0867 0.9961 -0.0160
vn 0.0847 0.9963 -0.0117
vn -0.8112 0.2398 -0.5333
vn -0.9582 -0.2170 -0.1865
vn -0.9327 0.1689 0.3188
vn 0.9438 -0.1297 0.3039
vn 0.9492 0.1696 -0.2651
vn 0.7796 -0.2237 -0.5850
vn 0.2040 0.2389 -0.9494
vn -0.1530 -0.2632 -0.9526
vn -0.6091 -0.1973 0.7682
vn -0.2817 0.2525 0.9257
vn 0.4037 -0.2376 0.8835
vn 0.7642 0.1937 0.6152
vn -0.9390 0.0599 -0.3386
vn 0.7249 -0.0083 -0.6888
vn 0.9446 -0.0042 -0.3281
vn 0.5384 -0.0604 0.8405
vn 0.5176 -0.0276 0.8552
vn 0.1467 0.0398 0.9884
vn -0.4890 -0.0868 0.8679
vn 0.9638 0.1353 -0.2299
vn -0.9638 -0.1353 0.2299
vn -0.0090 0.9996 -0.0266
vn 0.0246 0.9997 -0.0077
vn 0.8714 -0.0394 -0.4890
vn 0.9334 -0.2663 -0.2404
vn 0.2576 0.0748 0.9634
vn -0.3544 -0.3088 0.8826
vn -0.9504 -0.3111 -0.0050
vn -0.9451 -0.2104 0.2502
vn -0.2523 0.1946 -0.9479
vn -0.0316 -0.9990 0.0305
vn 0.2211 -0.4907 0.8428
vn -0.0512 -0.8430 0.5355
vn 0.8358 0.4580 0.3027
vn -0.7170 0.6736 0.1794
vn 0.2005 0.9760 0.0853
vn -0.0682 0.9976 0.0066
vn 0.0484 -0.9704 0.2365
vn 0.1176 -0.9086 0.4007
vn 0.0114 0.9998 -0.0147
vn 0.0038 0.9998 -0.0198
vn -0.0757 -0.1497 -0.9858
vn -0.2651 -0.9620 -0.0661
s off
f 4//1 1//1 2//1
f 4//2 3//2 1//2
f 7//3 3//3 5//3
f 7//4 1//4 3//4
f 4//5 5//5 3//5
f 4//6 6//6 5//6
f 6//7 2//7 7//7
f 6//8 4//8 2//8
f 7//9 2//9 1//9
f 6//10 7//10 5//10
f 28//11 25//11 8//11
f 25//12 9//12 8//12
f 9//13 44//13 8//13
f 43//14 23//14 10//14
f 10//15 11//15 12//15
f 10//16 23//16 11//16
f 13//17 10//17 12//17
f 18//18 15//18 14//18
f 15//19 16//19 14//19
f 15//20 12//20 16//20
f 15//21 17//21 12//21
f 20//22 44//22 9//22
f 20//23 9//23 19//23
f 55//24 20//24 19//24
f 21//25 55//25 19//25
f 52//26 19//26 22//26
f 52//27 21//27 19//27
f 50//28 52//28 22//28
f 50//29 22//29 23//29
f 45//30 50//30 23//30
f 43//31 45//31 23//31
f 12//32 24//32 13//32
f 12//33 17//33 24//33
f 37//34 18//34 14//34
f 37//35 14//35 25//35
f 28//36 37//36 25//36
f 31//37 66//37 24//37
f 31//38 24//38 17//38
f 27//39 29//39 33//39
f 33//40 29//40 34//40
f 35//41 34//41 29//41
f 26//42 33//42 36//42
f 34//43 35//43 30//43
f 34//44 30//44 32//44
f 33//45 32//45 36//45
f 33//46 34//46 32//46
f 27//47 33//47 26//47
f 26//48 36//48 28//48
f 28//49 36//49 37//49
f 36//50 63//50 37//50
f 18//51 37//51 63//51
f 66//52 35//52 24//52
f 30//53 35//53 66//53
f 24//54 35//54 13//54
f 10//55 38//55 39//55
f 14//56 23//56 19//56
f 14//57 12//57 23//57
f 25//58 14//58 9//58
f 9//59 14//59 19//59
f 16//60 12//60 14//60
f 22//61 19//61 23//61
f 11//62 23//62 12//62
f 8//63 40//63 41//63
f 10//64 39//64 43//64
f 42//65 46//65 39//65
f 44//66 40//66 8//66
f 40//67 56//67 39//67
f 43//68 39//68 46//68
f 44//69 58//69 40//69
f 56//70 40//70 58//70
f 56//71 42//71 39//71
f 8//72 41//72 28//72
f 13//73 38//73 10//73
f 29//74 41//74 38//74
f 27//75 26//75 41//75
f 13//76 35//76 38//76
f 29//77 38//77 35//77
f 28//78 41//78 26//78
f 41//79 29//79 27//79
f 46//80 42//80 47//80
f 47//81 42//81 54//81
f 43//82 46//82 45//82
f 45//83 46//83 48//83
f 47//84 54//84 51//84
f 46//85 47//85 48//85
f 50//86 45//86 48//86
f 49//87 48//87 47//87
f 51//88 49//88 47//88
f 49//89 50//89 48//89
f 52//90 50//90 49//90
f 54//91 42//91 56//91
f 49//92 51//92 53//92
f 49//93 53//93 52//93
f 52//94 53//94 21//94
f 51//95 54//95 56//95
f 55//96 21//96 53//96
f 53//97 51//97 57//97
f 51//98 56//98 57//98
f 53//99 57//99 55//99
f 55//100 57//100 58//100
f 20//101 55//101 58//101
f 57//102 56//102 58//102
f 20//103 58//103 44//103
f 40//104 38//104 41//104
f 40//105 39//105 38//105
f 60//106 59//106 15//106
f 60//107 15//107 18//107
f 59//108 17//108 15//108
f 30//109 62//109 32//109
f 61//110 36//110 32//110
f 32//111 62//111 61//111
f 61//112 62//112 60//112
f 60//113 62//113 59//113
f 63//114 61//114 64//114
f 61//115 63//115 36//115
f 67//116 64//116 61//116
f 60//117 64//117 67//117
f 60//118 18//118 64//118
f 18//119 63//119 64//119
f 30//120 65//120 62//120
f 66//121 65//121 30//121
f 66//122 31//122 65//122
f 17//123 59//123 65//123
f 17//124 65//124 31//124
f 65//125 59//125 62//125
f 67//126 61//126 60//126
f 80//127 71//127 72//127
f 75//128 74//128 90//128
f 73//129 74//129 75//129
f 76//130 73//130 75//130
f 76//131 77//131 73//131
f 76//132 78//132 77//132
f 78//133 79//133 77//133
f 78//134 80//134 79//134
f 72//135 71//135 81//135
f 71//136 82//136 81//136
f 71//137 85//137 84//137
f 69//138 84//138 85//138
f 69//139 85//139 70//139
f 70//140 86//140 69//140
f 70//141 87//141 86//141
f 70//142 88//142 87//142
f 89//143 88//143 90//143
f 91//144 89//144 90//144
f 90//145 92//145 91//145
f 90//146 74//146 92//146
f 88//147 111//147 87//147
f 88//148 89//148 111//148
f 71//149 83//149 82//149
f 71//150 84//150 83//150
f 80//151 68//151 79//151
f 80//152 72//152 68//152
f 76//153 93//153 97//153
f 76//153 75//153 93//153
f 75//153 90//153 93//153
f 90//153 94//153 93//153
f 90//153 88//153 94//153
f 88//153 95//153 94//153
f 71//153 96//153 99//153
f 71//153 80//153 96//153
f 80//153 78//153 96//153
f 78//153 97//153 96//153
f 78//153 76//153 97//153
f 88//153 70//153 95//153
f 70//153 98//153 95//153
f 70//153 85//153 98//153
f 85//153 99//153 98//153
f 85//153 71//153 99//153
f 106//154 101//154 107//154
f 101//155 102//155 107//155
f 101//156 82//156 102//156
f 101//157 81//157 82//157
f 91//158 100//158 89//158
f 91//159 103//159 100//159
f 103//160 104//160 100//160
f 103//161 105//161 104//161
f 105//162 106//162 104//162
f 106//163 107//163 104//163
f 87//164 108//164 110//164
f 110//165 84//165 87//165
f 109//166 83//166 84//166
f 108//167 87//167 111//167
f 110//168 109//168 84//168
f 117//169 111//169 116//169
f 117//170 108//170 111//170
f 109//171 112//171 83//171
f 112//172 113//172 83//172
f 112//173 114//173 113//173
f 114//174 115//174 113//174
f 114//175 116//175 115//175
f 114//176 117//176 116//176
f 119//177 92//177 118//177
f 120//178 118//178 79//178
f 118//179 74//179 79//179
f 92//180 74//180 118//180
f 121//181 79//181 68//181
f 125//182 121//182 126//182
f 121//183 68//183 126//183
f 121//184 120//184 79//184
f 119//185 122//185 92//185
f 119//186 123//186 122//186
f 123//187 124//187 122//187
f 123//188 125//188 124//188
f 125//189 126//189 124//189
f 110//190 118//190 120//190
f 110//191 108//191 118//191
f 108//192 119//192 118//192
f 114//193 112//193 125//193
f 112//194 121//194 125//194
f 112//195 109//195 121//195
f 109//196 120//196 121//196
f 109//197 110//197 120//197
f 108//198 117//198 119//198
f 117//199 123//199 119//199
f 117//200 114//200 123//200
f 114//201 125//201 123//201
f 91//202 92//202 103//202
f 92//203 122//203 103//203
f 81//204 101//204 68//204
f 126//205 68//205 101//205
f 81//206 68//206 72//206
f 101//207 127//207 126//207
f 101//208 106//208 127//208
f 122//209 105//209 103//209
f 122//210 127//210 105//210
f 127//211 106//211 105//211
f 89//212 100//212 111//212
f 82//213 83//213 102//213
f 83//214 113//214 102//214
f 100//215 104//215 111//215
f 104//216 116//216 111//216
f 104//217 107//217 116//217
f 107//218 115//218 116//218
f 113//219 107//219 102//219
f 113//220 115//220 107//220
f 127//221 124//221 126//221
f 127//222 122//222 124//222
f 84//223 86//223 87//223
f 84//223 69//223 86//223
f 79//224 74//224 77//224
f 73//224 77//224 74//224
f 131//225 128//225 94//225
f 128//226 93//226 94//226
f 128//227 97//227 93//227
f 128//228 129//228 97//228
f 134//229 98//229 99//229
f 134//230 130//230 98//230
f 130//231 95//231 98//231
f 130//232 131//232 95//232
f 131//233 94//233 95//233
f 129//234 132//234 97//234
f 132//235 96//235 97//235
f 132//236 133//236 96//236
f 133//237 99//237 96//237
f 133//238 134//238 99//238
f 131//239 130//239 134//239
f 132//240 129//240 128//240
f 133//241 132//241 134//241
f 132//242 131//242 134//242
f 132//243 128//243 131//243
f 136//244 137//244 135//244
f 137//245 136//245 135//245
f 144//246 145//246 139//246
f 147//247 138//247 148//247
f 154//248 144//248 153//248
f 141//247 148//247 138//247
f 144//249 142//249 153//249
f 150//247 140//247 138//247
f 150//153 138//153 147//153
f 151//153 143//153 154//153
f 151//153 147//153 143//153
f 142//153 140//153 152//153
f 152//250 153//250 142//250
f 148//247 143//247 147//247
f 145//153 154//153 143//153
f 146//246 138//246 140//246
f 149//153 145//153 143//153
f 150//247 152//247 140//247
f 154//153 145//153 144//153
f 142//251 144//251 164//251
f 142//252 164//252 157//252
f 140//253 142//253 156//253
f 142//254 157//254 156//254
f 138//255 146//255 166//255
f 138//256 166//256 167//256
f 141//257 167//257 155//257
f 148//258 141//258 155//258
f 148//259 155//259 160//259
f 143//260 148//260 160//260
f 149//261 143//261 161//261
f 145//262 149//262 162//262
f 149//263 161//263 162//263
f 139//264 145//264 159//264
f 145//265 162//265 159//265
f 139//266 159//266 158//266
f 144//267 139//267 158//267
f 160//268 155//268 168//268
f 155//269 169//269 168//269
f 155//270 167//270 169//270
f 167//271 166//271 169//271
f 163//272 158//272 173//272
f 158//273 170//273 173//273
f 158//274 159//274 170//274
f 159//275 162//275 170//275
f 162//276 171//276 170//276
f 162//277 161//277 171//277
f 161//278 160//278 171//278
f 160//279 168//279 171//279
f 166//280 172//280 169//280
f 166//281 165//281 172//281
f 165//282 156//282 172//282
f 156//283 157//283 172//283
f 157//284 173//284 172//284
f 157//285 164//285 173//285
f 164//286 163//286 173//286
f 172//287 152//287 150//287
f 172//288 173//288 152//288
f 173//289 153//289 152//289
f 171//290 168//290 151//290
f 168//291 147//291 151//291
f 168//292 169//292 147//292
f 169//293 150//293 147//293
f 169//294 172//294 150//294
f 173//295 170//295 153//295
f 170//296 154//296 153//296
f 170//297 171//297 154//297
f 171//298 151//298 154//298
f 143//299 160//299 161//299
f 144//300 158//300 163//300
f 144//301 163//301 164//301
f 146//302 156//302 165//302
f 146//303 140//303 156//303
f 146//304 165//304 166//304
f 141//305 138//305 167//305
f 175//306 176//306 174//306
f 176//307 175//307 174//307
f 180//308 177//308 178//308
f 180//309 179//309 177//309
f 183//310 179//310 181//310
f 183//311 177//311 179//311
f 180//312 181//312 179//312
f 180//313 182//313 181//313
f 182//314 178//314 183//314
f 182//315 180//315 178//315
f 183//316 178//316 177//316
f 182//317 183//317 181//317
f 185//318 186//318 187//318
f 185//319 184//319 186//319
f 191//320 187//320 186//320
f 191//321 188//321 187//321
f 184//322 189//322 190//322
f 184//323 185//323 189//323
f 188//324 190//324 189//324
f 188//325 191//325 190//325
f 185//326 188//326 189//326
f 185//327 187//327 188//327
f 186//328 190//328 191//328
f 186//329 184//329 190//329
