# Blender v2.79 (sub 0) OBJ File: 'ROBOT0.blend'
# www.blender.org
o ARM___-_BASE__not_moving____-_BASE__rotating__null_BASE__rotati
v -0.061934 0.695953 0.590875
v 0.403156 0.695953 -0.517161
v 0.448360 0.695951 0.402808
v -0.662929 0.695954 -0.212911
v -0.495825 0.695953 0.400429
v 0.597419 0.695952 -0.096610
v -0.179612 0.695952 -0.672065
v -0.617145 0.919860 -0.327566
v -0.205778 0.919857 -0.648492
v -0.018773 0.919857 0.594239
v -0.553658 0.919852 0.356162
v 0.244003 0.919859 -0.618360
v 0.586815 0.919856 -0.214797
v 0.477957 0.919859 0.361932
v 0.199250 -0.351125 1.977987
v 0.774272 0.129926 -0.527505
v 0.749837 0.141960 -0.998191
v 0.727612 0.114017 -1.248015
v 0.268853 0.520365 0.857952
v 0.534986 0.468027 0.701675
v 0.616633 0.671073 0.624148
v 0.813061 0.477035 0.357465
v 0.915382 0.474035 -0.051582
v 0.903796 0.671077 -0.049518
v 0.804467 0.477919 -0.455591
v 0.808758 0.671076 -0.453442
v 0.538038 0.470973 -0.784324
v 0.475922 0.671074 -0.826737
v 0.247760 0.615156 -0.926829
v 0.608694 0.671074 -0.720468
v 0.818047 0.671075 0.359655
v 0.486167 0.671073 0.725485
v 0.762644 0.137033 0.456071
v 0.926787 0.094887 0.059509
v 0.909754 0.265718 0.032730
v -0.285136 0.665322 -0.941948
v -0.249485 0.497801 -0.969964
v 0.083414 0.671073 -0.974060
v 0.087099 0.495811 -0.977642
v 0.192578 0.671073 0.872228
v 0.106728 0.494395 0.894325
v -0.149088 0.494039 0.893163
v -0.518607 0.439120 -0.832887
v -0.989132 0.097888 -0.014123
v -0.778966 0.116202 1.163322
v -0.319873 0.532785 0.860144
v -0.048693 0.482679 -0.986548
v -0.037839 0.246989 -1.141561
v 0.092944 0.370187 -1.063527
v -0.173393 0.361077 -1.066406
v 0.754551 0.113902 1.149666
v 1.017030 0.043696 1.180134
v -1.053933 0.039595 1.201219
v 0.992756 0.038846 -1.284679
v -0.856344 -0.311585 -1.254441
v 0.785379 -0.311728 -1.284491
v -1.088264 -0.013537 -1.272943
v -1.080023 0.093956 -1.240510
v -0.801792 0.116339 -1.231933
v 1.407929 -0.324063 -0.894765
v 1.343510 -0.324060 0.671175
v 1.524247 -0.298839 -1.033772
v 1.220436 -0.324068 -0.991934
v 0.824998 -0.325827 1.217161
v 1.239209 -0.324066 -0.798041
v 1.542365 -0.295522 0.920847
v 1.358816 -0.324072 0.897634
v 1.200234 -0.324065 0.802638
v 0.601593 -0.139743 1.184032
v -0.628007 -0.128115 1.199998
v -0.866847 -0.327398 1.247962
v -1.600904 -0.295248 -0.763194
v -1.350702 -0.324055 0.699632
v -1.458076 -0.324066 0.787403
v -1.604972 -0.293635 -1.003174
v -1.583176 -0.290452 0.950652
v -1.296013 -0.324063 -0.782736
v -1.438672 -0.324071 -0.777110
v -1.380959 -0.324078 -0.995210
v -1.248419 -0.324066 0.838995
v -1.375140 -0.324067 0.923698
v -1.575024 -0.274365 0.707547
v 1.521217 -0.284170 -0.797904
v 1.537468 -0.287684 0.684499
v 1.313755 -0.165735 0.476940
v -1.377109 -0.166212 -0.558868
v 1.302577 -0.164905 -0.584411
v 1.295495 -0.173151 -0.788760
v 1.392522 -0.233144 -0.841676
v -1.248166 -0.104809 0.788625
v -1.432368 -0.209638 -0.972525
v -1.416050 -0.210203 0.711324
v -1.345263 -0.154699 -0.758557
v 1.171589 -0.098733 -0.913294
v 1.361472 -0.214294 -0.994998
v -1.264272 -0.103193 -0.909663
v -1.472196 -0.232615 -0.812958
v -1.440922 -0.222437 0.895289
v 1.344462 -0.193729 0.896044
v 1.202098 -0.103921 0.831300
v 1.316346 -0.175971 0.671039
v -1.337376 -0.161978 0.930510
v 1.425783 -0.247717 0.783849
v -1.364235 -0.165264 0.501547
v -0.779487 0.123506 0.525364
v -0.491778 0.463166 0.768417
v -0.790382 0.121758 -0.599529
v -0.863757 0.484484 0.369506
v -0.885730 0.671075 -0.436518
v -0.870631 0.484484 -0.435682
v -0.958931 0.484482 -0.032333
v -0.962200 0.671073 0.052014
v -0.873414 0.671073 0.382869
v -0.661517 0.644419 0.631682
v -0.536444 0.671072 0.739006
v -0.227906 0.671072 0.882577
v -0.683802 0.671073 -0.710750
v -0.678717 0.484487 -0.709541
v -0.542007 0.671073 -0.799471
v -0.947031 0.671071 -0.114888
v 0.433250 0.671071 0.400540
v -0.097314 0.671069 0.600966
v -0.501871 0.671079 -0.474567
v 0.599615 0.671072 -0.012831
v -0.662529 0.671071 0.164078
v 0.463166 0.671073 -0.447746
v -0.016632 0.671074 -0.682688
v -0.555998 0.919863 -0.416625
v -0.025752 0.919861 -0.686452
v -0.096036 0.919863 0.596260
v -0.629113 0.919864 0.228861
v 0.569300 0.919862 -0.324464
v 0.465284 0.919858 0.378390
v 0.923091 0.468122 -0.983815
v 0.923091 0.290633 -0.983815
v 0.936261 0.453287 0.685994
v 0.439910 0.461698 0.912584
v 0.941254 0.290633 0.881979
v 0.758178 0.144921 0.904767
v 0.930287 0.434998 0.410210
v 0.930258 0.373421 0.527202
v 0.925092 0.452162 -0.030550
v 0.932994 0.327343 0.650228
v 0.930187 0.448719 0.186402
v 0.931757 0.372166 0.774620
v 0.926768 0.371142 0.273531
v 0.933530 0.318802 0.412766
v 0.925039 0.355485 -0.115015
v 0.928043 0.329256 0.004243
v 0.929254 0.323442 0.152613
v 0.417082 0.464105 -1.004493
vn 0.9466 0.1935 -0.2579
vn 0.9658 -0.2434 -0.0897
vn 0.6712 0.2245 0.7065
vn 0.6151 -0.0111 0.7884
vn -0.4211 -0.1087 -0.9005
vn -0.3447 0.0805 -0.9353
vn 0.4058 -0.0645 -0.9117
vn 0.4007 -0.0770 -0.9130
vn -0.0664 -0.1121 0.9915
vn -0.2490 0.2464 0.9367
vn -0.7395 -0.2417 0.6282
vn -0.8937 0.1756 0.4128
vn -0.9726 -0.1430 -0.1836
vn -0.9556 0.0742 -0.2852
vn -0.0000 -1.0000 0.0000
vn 0.6900 0.7100 -0.1408
vn 0.9640 -0.2599 -0.0567
vn 0.2765 0.9487 0.1531
vn 0.4140 -0.0639 -0.9080
vn 0.5245 0.1868 0.8307
vn 0.8002 -0.0111 -0.5996
vn 0.7755 -0.0738 -0.6270
vn 0.9717 0.0595 -0.2286
vn 0.9641 -0.0185 -0.2649
vn 0.9697 -0.0277 0.2428
vn 0.9772 0.0553 0.2048
vn 0.7925 -0.0882 0.6035
vn 0.7779 -0.0271 0.6278
vn 0.4471 0.0026 0.8945
vn 0.9192 0.1488 0.3646
vn 0.9671 0.0576 -0.2478
vn 0.7032 0.7040 0.0996
vn 0.9994 -0.0336 0.0105
vn 0.5434 0.7750 -0.3227
vn -0.0881 0.1460 -0.9853
vn -0.0227 0.0200 -0.9995
vn 0.0244 0.1124 0.9934
vn -0.0046 0.0576 0.9983
vn -0.7566 0.6538 0.0080
vn -0.7097 0.7016 -0.0639
vn -0.1502 0.9886 0.0114
vn 0.3862 0.9213 -0.0454
vn 0.0082 0.5726 0.8198
vn -0.0180 0.6013 0.7989
vn 0.0348 0.7335 0.6788
vn -0.0046 0.5519 0.8339
vn 0.0109 0.5699 0.8216
vn 0.2914 0.2178 -0.9315
vn -0.0134 0.6526 -0.7576
vn -0.0004 0.5644 -0.8255
vn 0.0039 0.5533 -0.8330
vn -0.0075 0.5982 -0.8013
vn -0.0205 0.5504 -0.8347
vn -0.1517 0.5530 -0.8192
vn -0.0253 0.5668 -0.8235
vn -0.0076 0.5736 -0.8191
vn 0.0220 0.4765 -0.8789
vn -0.0128 0.5633 -0.8261
vn -0.9973 0.0727 0.0123
vn 0.0087 0.4253 0.9050
vn 0.0084 0.4190 0.9080
vn -0.0183 -0.0761 -0.9969
vn -0.0057 0.0028 -1.0000
vn -0.0127 0.2897 -0.9570
vn -0.0087 0.4503 -0.8928
vn -0.0084 0.4143 -0.9101
vn 0.2830 -0.9570 0.0632
vn 0.0634 -0.9887 -0.1360
vn 0.0003 -1.0000 -0.0000
vn 0.1580 -0.9868 -0.0360
vn 0.0650 -0.9900 -0.1253
vn 0.1252 -0.9709 0.2039
vn 0.1852 -0.9826 -0.0126
vn 0.0016 -1.0000 -0.0028
vn -0.0248 -0.9997 -0.0052
vn 0.0048 -1.0000 0.0001
vn -0.0449 0.1227 0.9914
vn 0.0129 -0.0080 0.9999
vn 0.0101 0.0185 0.9998
vn 0.0653 0.1588 0.9851
vn -0.1190 -0.9506 -0.2866
vn -0.3471 -0.9349 -0.0735
vn -0.1752 -0.9845 -0.0036
vn -0.2174 -0.9391 -0.2661
vn -0.1475 -0.9850 0.0898
vn -0.1333 -0.9904 -0.0353
vn 0.0295 -0.9996 0.0011
vn 0.0199 -0.9998 -0.0079
vn -0.1316 -0.9717 0.1963
vn -0.0020 -1.0000 -0.0063
vn 0.0064 -1.0000 -0.0048
vn 0.0381 -0.2521 0.9669
vn -0.0034 -1.0000 -0.0050
vn 0.3834 -0.1073 0.9173
vn 0.1841 -0.7479 -0.6378
vn 0.9720 0.2317 0.0400
vn 0.8263 0.5631 -0.0083
vn -0.0600 -0.8963 0.4393
vn 0.3185 -0.1889 -0.9289
vn -0.0416 -0.8236 0.5657
vn -0.9075 -0.4187 -0.0335
vn -0.9975 -0.0698 0.0122
vn -0.1924 -0.7720 -0.6058
vn -0.3856 -0.0795 0.9192
vn -0.3102 -0.2974 -0.9029
vn 0.4486 0.8928 0.0411
vn 0.4400 0.8874 0.1376
vn 0.5044 0.8619 -0.0523
vn 0.5526 0.8318 -0.0527
vn 0.4826 0.8644 0.1411
vn 0.4510 0.8911 -0.0496
vn 0.5518 0.8319 -0.0593
vn 0.3556 0.9336 0.0428
vn 0.8666 0.4263 -0.2594
vn 0.5577 0.8300 -0.0052
vn 0.5652 0.8249 -0.0072
vn 0.7501 0.6497 0.1230
vn 0.3967 0.9121 -0.1032
vn 0.5360 0.8425 0.0540
vn 0.5685 0.8219 0.0358
vn 0.3554 0.9344 0.0236
vn 0.4677 0.8646 -0.1835
vn 0.4643 0.8813 -0.0876
vn -0.4559 0.8879 -0.0615
vn -0.5458 0.8368 0.0444
vn -0.5229 0.8513 -0.0432
vn -0.4162 0.9081 0.0461
vn -0.4304 0.9024 0.0225
vn -0.5128 0.8579 -0.0323
vn -0.4725 0.8690 -0.1466
vn -0.4395 0.8982 0.0135
vn -0.4466 0.8919 0.0707
vn -0.8705 0.4149 0.2646
vn -0.5604 0.8282 0.0061
vn -0.4901 0.8716 -0.0119
vn -0.5371 0.8427 -0.0371
vn -0.5649 0.8249 -0.0228
vn -0.3743 0.9213 0.1049
vn -0.4492 0.8749 -0.1811
vn -0.1776 0.4736 -0.8626
vn -0.4837 0.2323 -0.8438
vn 0.6362 -0.1913 -0.7474
vn 0.9658 0.2420 -0.0935
vn 0.2341 -0.2747 0.9326
vn -0.3918 0.5245 0.7559
vn -0.9531 -0.2559 0.1616
vn 0.8801 0.4139 0.2329
vn 0.8964 0.3484 0.2739
vn -0.1829 -0.2696 0.9455
vn -0.8773 0.3276 0.3507
vn -0.8426 -0.1722 -0.5103
vn -0.0391 0.1301 -0.9907
vn 0.4728 -0.1659 -0.8654
vn 0.9541 -0.2783 0.1105
vn 0.6088 0.2730 0.7449
vn -0.2706 -0.2507 0.9295
vn -0.7987 0.1356 0.5862
vn -0.8153 -0.1287 -0.5645
vn -0.5483 0.1622 -0.8204
vn 0.3429 -0.0404 -0.9385
vn 0.7911 0.3775 -0.4814
vn -0.8276 -0.0979 -0.5527
vn 0.4328 0.0367 -0.9008
vn 0.5110 0.1067 -0.8530
vn 0.6709 0.1237 0.7312
vn 0.7928 -0.0853 0.6035
vn -0.7532 -0.1376 0.6432
vn -0.7141 0.6983 0.0483
vn 0.8387 -0.4591 0.2930
vn -0.3745 0.9272 0.0110
vn 0.0012 -0.9976 0.0696
vn -0.0085 -0.9971 0.0753
vn 0.6404 -0.7680 -0.0022
vn -0.6405 -0.7679 0.0058
vn 0.2692 0.9627 -0.0269
vn 0.2558 0.9665 0.0236
vn 0.5590 0.8292 -0.0071
vn -0.0803 0.9968 0.0028
vn -0.2641 0.9640 0.0322
vn -0.3725 0.9277 0.0246
vn -0.7658 0.6430 0.0080
vn -0.5019 0.7972 0.3355
vn -0.1367 0.9906 -0.0060
vn 0.3277 0.9441 0.0353
vn -0.9295 -0.0598 0.3640
vn -0.6360 -0.0135 0.7716
vn -0.4216 0.0376 0.9060
vn -0.5265 0.2168 0.8221
vn -0.7587 0.0391 0.6503
vn -0.9381 -0.0728 0.3386
vn -0.9232 -0.0748 0.3771
vn -0.9657 0.0155 0.2591
vn -0.9443 -0.0629 -0.3231
vn -0.9390 -0.0775 -0.3350
vn -0.9529 -0.0784 -0.2931
vn -0.8047 0.0362 -0.5925
vn -0.6629 -0.0229 -0.7484
vn -0.6180 -0.0477 -0.7847
vn -0.4823 0.0771 -0.8726
vn -0.9799 0.0677 -0.1877
vn -0.9816 0.0392 -0.1871
vn -0.9962 0.0795 0.0361
vn 0.0000 1.0000 -0.0000
vn 0.1039 0.9944 0.0180
vn -0.0414 0.9095 -0.4137
vn 0.1608 0.8686 0.4687
vn -0.0209 0.9979 -0.0608
vn 0.1848 0.9373 0.2954
vn -0.0001 1.0000 0.0000
vn -0.2535 0.9657 0.0556
vn -0.9318 0.3622 0.0227
vn -0.9956 0.0235 -0.0905
vn -0.6470 -0.0312 0.7618
vn -0.1960 -0.0287 0.9802
vn 0.2163 0.0170 0.9762
vn 0.6125 0.0548 0.7886
vn 0.6246 0.0285 -0.7804
vn 0.2841 0.0256 -0.9584
vn -0.5996 0.0545 -0.7984
vn -0.5303 -0.0199 -0.8476
vn -0.9807 0.1607 -0.1111
vn -0.9585 -0.1524 -0.2411
vn -0.4509 0.1083 -0.8860
vn -0.3940 -0.0283 -0.9187
vn 0.3531 0.0378 0.9348
vn 0.3618 0.0158 0.9321
vn -0.5674 0.0185 0.8232
vn -0.6069 -0.1229 0.7852
vn 0.4398 0.0025 -0.8981
vn 0.5095 0.1977 -0.8375
vn 0.9237 -0.2505 -0.2898
vn 0.9465 0.2908 0.1401
vn 0.9243 -0.0859 0.3720
vn 0.0827 0.0000 -0.9966
vn 0.0406 0.0224 -0.9989
vn -0.0068 0.9996 -0.0274
vn 0.0563 0.9984 -0.0059
vn -0.0025 0.9998 -0.0191
vn 0.6859 0.7277 0.0011
vn 0.0385 0.9981 0.0473
vn 0.1263 0.9917 0.0243
vn 0.0389 0.9976 0.0575
vn 0.0797 0.0555 0.9953
vn 0.2896 0.7401 0.6069
vn 0.9109 0.4124 -0.0148
vn 0.9864 -0.1640 -0.0105
vn 0.9991 -0.0369 -0.0192
vn 0.6472 -0.5784 -0.4965
vn 0.9989 -0.0478 -0.0034
vn 0.9959 0.0894 -0.0148
vn 0.9982 0.0596 0.0001
vn 0.9994 -0.0177 -0.0289
vn 0.8051 -0.5930 -0.0116
vn 1.0000 0.0000 -0.0021
vn 0.9937 0.1113 -0.0097
vn 0.9959 0.0875 -0.0216
vn 0.9815 0.1914 -0.0047
vn 0.9989 0.0270 -0.0384
vn 1.0000 0.0015 -0.0024
vn 0.9969 0.0777 -0.0080
vn 0.9992 0.0403 -0.0066
vn 0.9732 0.2295 -0.0119
vn 0.9997 -0.0011 -0.0235
vn 0.9997 0.0219 -0.0073
vn 0.8145 -0.5773 -0.0570
vn 0.7313 -0.6820 -0.0071
vn 0.6517 -0.7584 -0.0100
vn 0.6549 -0.7557 -0.0021
vn 0.6241 -0.7811 0.0199
vn 0.9993 -0.0320 0.0215
vn 0.9995 0.0282 0.0151
vn 0.9995 -0.0145 0.0263
vn 0.9996 0.0180 -0.0212
vn -0.0008 0.5495 -0.8355
vn -0.0183 0.5488 -0.8357
s off
f 5//1 4//1 11//1
f 4//2 8//2 11//2
f 4//3 7//3 8//3
f 7//4 9//4 8//4
f 3//5 10//5 14//5
f 3//6 1//6 10//6
f 1//7 11//7 10//7
f 1//8 5//8 11//8
f 7//9 12//9 9//9
f 7//10 2//10 12//10
f 2//11 13//11 12//11
f 2//12 6//12 13//12
f 6//13 14//13 13//13
f 6//14 3//14 14//14
f 9//15 13//15 8//15
f 11//15 8//15 13//15
f 10//15 11//15 13//15
f 10//15 13//15 14//15
f 9//15 12//15 13//15
f 18//16 151//16 17//16
f 16//17 18//17 17//17
f 20//18 19//18 137//18
f 27//19 29//19 28//19
f 19//20 20//20 40//20
f 25//21 30//21 26//21
f 25//22 27//22 30//22
f 23//23 26//23 24//23
f 23//24 25//24 26//24
f 23//25 31//25 22//25
f 23//26 24//26 31//26
f 20//27 31//27 21//27
f 20//28 22//28 31//28
f 20//29 32//29 40//29
f 35//30 33//30 34//30
f 16//31 35//31 34//31
f 51//32 139//32 137//32
f 33//33 139//33 51//33
f 27//34 151//34 29//34
f 36//35 38//35 37//35
f 38//36 39//36 37//36
f 40//37 116//37 41//37
f 116//38 42//38 41//38
f 107//39 43//39 59//39
f 43//40 36//40 59//40
f 45//41 105//41 44//41
f 18//42 16//42 34//42
f 42//43 45//43 51//43
f 42//44 46//44 45//44
f 137//45 19//45 41//45
f 42//46 51//46 41//46
f 51//47 137//47 41//47
f 37//48 59//48 36//48
f 47//49 37//49 39//49
f 47//50 39//50 49//50
f 48//51 59//51 50//51
f 48//52 18//52 59//52
f 49//53 18//53 48//53
f 39//54 29//54 49//54
f 47//55 50//55 37//55
f 50//56 59//56 37//56
f 151//57 49//57 29//57
f 151//58 18//58 49//58
f 58//59 57//59 53//59
f 45//60 52//60 51//60
f 45//61 53//61 52//61
f 55//62 57//62 56//62
f 56//63 57//63 54//63
f 57//64 58//64 54//64
f 58//65 59//65 18//65
f 18//66 54//66 58//66
f 62//67 83//67 60//67
f 60//15 61//15 65//15
f 63//68 56//68 62//68
f 63//69 65//69 61//69
f 84//70 66//70 67//70
f 63//71 62//71 60//71
f 67//72 66//72 64//72
f 61//73 84//73 67//73
f 68//74 67//74 64//74
f 63//75 64//75 56//75
f 63//76 68//76 64//76
f 63//15 61//15 68//15
f 64//77 52//77 69//77
f 52//78 70//78 69//78
f 52//79 53//79 70//79
f 53//80 71//80 70//80
f 79//81 75//81 55//81
f 74//82 76//82 82//82
f 78//83 72//83 75//83
f 73//84 74//84 82//84
f 81//85 76//85 74//85
f 78//86 75//86 79//86
f 73//87 77//87 55//87
f 79//88 55//88 77//88
f 81//89 71//89 76//89
f 80//90 55//90 71//90
f 73//91 55//91 80//91
f 78//92 77//92 72//92
f 81//93 80//93 71//93
f 66//94 52//94 64//94
f 84//95 61//95 85//95
f 85//96 61//96 60//96
f 87//97 85//97 60//97
f 87//98 60//98 83//98
f 56//99 54//99 62//99
f 72//100 77//100 86//100
f 86//101 77//101 73//101
f 104//102 86//102 73//102
f 104//103 73//103 82//103
f 71//104 53//104 76//104
f 75//105 57//105 55//105
f 101//106 84//106 85//106
f 101//107 103//107 84//107
f 88//108 87//108 89//108
f 88//109 94//109 87//109
f 95//110 62//110 54//110
f 95//111 83//111 62//111
f 99//112 100//112 52//112
f 95//113 89//113 83//113
f 94//114 54//114 87//114
f 54//115 85//115 87//115
f 54//116 52//116 85//116
f 52//117 100//117 85//117
f 89//118 87//118 83//118
f 95//119 54//119 94//119
f 100//120 101//120 85//120
f 103//121 66//121 84//121
f 99//122 52//122 66//122
f 103//123 99//123 66//123
f 97//124 72//124 86//124
f 92//125 90//125 104//125
f 96//126 57//126 91//126
f 98//127 82//127 76//127
f 97//128 91//128 72//128
f 93//129 97//129 86//129
f 98//130 76//130 53//130
f 91//131 75//131 72//131
f 91//132 57//132 75//132
f 90//133 53//133 104//133
f 53//134 86//134 104//134
f 53//135 57//135 86//135
f 57//136 93//136 86//136
f 102//137 53//137 90//137
f 92//138 104//138 82//138
f 102//139 98//139 53//139
f 89//140 60//140 88//140
f 60//141 65//141 88//141
f 94//142 88//142 65//142
f 94//143 65//143 63//143
f 94//144 63//144 95//144
f 95//145 63//145 60//145
f 89//146 95//146 60//146
f 97//147 78//147 79//147
f 97//148 79//148 91//148
f 96//149 91//149 79//149
f 79//150 77//150 96//150
f 96//151 77//151 93//151
f 93//152 77//152 78//152
f 97//153 93//153 78//153
f 92//154 98//154 74//154
f 92//155 74//155 73//155
f 73//156 90//156 92//156
f 73//157 80//157 90//157
f 90//158 80//158 102//158
f 80//159 81//159 102//159
f 102//160 81//160 98//160
f 98//161 81//161 74//161
f 99//162 103//162 67//162
f 100//163 99//163 67//163
f 100//164 67//164 68//164
f 101//165 68//165 61//165
f 101//166 100//166 68//166
f 103//167 101//167 61//167
f 103//168 61//168 67//168
f 93//169 57//169 96//169
f 92//170 82//170 98//170
f 69//171 55//171 56//171
f 69//172 70//172 55//172
f 55//173 70//173 71//173
f 56//174 64//174 69//174
f 18//175 34//175 54//175
f 34//176 51//176 52//176
f 34//177 52//177 54//177
f 44//178 59//178 58//178
f 53//179 45//179 44//179
f 44//180 58//180 53//180
f 106//181 105//181 45//181
f 46//182 106//182 45//182
f 107//183 59//183 44//183
f 34//184 33//184 51//184
f 105//185 108//185 44//185
f 106//186 114//186 105//186
f 106//187 116//187 115//187
f 106//188 46//188 116//188
f 105//189 114//189 113//189
f 105//190 113//190 108//190
f 44//191 108//191 113//191
f 44//192 113//192 112//192
f 107//193 44//193 110//193
f 44//194 109//194 110//194
f 110//195 109//195 107//195
f 107//196 109//196 117//196
f 117//197 118//197 107//197
f 43//198 107//198 118//198
f 43//199 119//199 36//199
f 44//200 112//200 111//200
f 44//201 120//201 109//201
f 44//202 111//202 120//202
f 122//203 115//203 116//203
f 31//203 26//203 30//203
f 113//204 114//204 117//204
f 29//205 117//205 28//205
f 29//206 38//206 117//206
f 40//203 122//203 116//203
f 36//207 117//207 38//207
f 36//208 119//208 117//208
f 113//203 117//203 112//203
f 117//203 120//203 112//203
f 117//203 109//203 120//203
f 30//203 21//203 31//203
f 121//203 122//203 40//203
f 127//203 126//203 28//203
f 124//209 21//209 30//209
f 21//203 124//203 121//203
f 24//203 26//203 31//203
f 115//203 122//203 125//203
f 126//203 124//203 30//203
f 125//210 114//210 115//210
f 121//203 32//203 21//203
f 121//203 40//203 32//203
f 125//211 117//211 114//211
f 125//203 123//203 117//203
f 127//203 117//203 123//203
f 126//203 30//203 28//203
f 127//203 28//203 117//203
f 111//212 112//212 120//212
f 106//213 115//213 114//213
f 42//214 116//214 46//214
f 19//215 40//215 41//215
f 20//216 21//216 32//216
f 27//217 28//217 30//217
f 39//218 38//218 29//218
f 118//219 119//219 43//219
f 118//220 117//220 119//220
f 131//221 128//221 125//221
f 128//222 123//222 125//222
f 128//223 129//223 123//223
f 129//224 127//224 123//224
f 133//225 122//225 121//225
f 133//226 130//226 122//226
f 130//227 131//227 122//227
f 131//228 125//228 122//228
f 129//229 126//229 127//229
f 129//230 132//230 126//230
f 132//231 124//231 126//231
f 132//232 133//232 124//232
f 133//233 121//233 124//233
f 130//203 133//203 131//203
f 128//203 131//203 133//203
f 129//203 128//203 133//203
f 132//203 129//203 133//203
f 17//234 134//234 135//234
f 17//235 151//235 134//235
f 27//236 134//236 151//236
f 23//237 134//237 25//237
f 27//238 25//238 134//238
f 23//239 136//239 134//239
f 20//240 137//240 136//240
f 23//241 22//241 136//241
f 22//242 20//242 136//242
f 138//243 137//243 139//243
f 138//244 136//244 137//244
f 142//245 136//245 144//245
f 136//246 140//246 144//246
f 141//247 140//247 136//247
f 145//248 136//248 138//248
f 146//249 144//249 140//249
f 146//250 147//250 150//250
f 147//251 141//251 143//251
f 136//252 143//252 141//252
f 142//253 134//253 136//253
f 142//254 135//254 134//254
f 138//255 135//255 147//255
f 143//256 145//256 138//256
f 143//257 138//257 147//257
f 140//258 147//258 146//258
f 142//259 148//259 135//259
f 149//260 135//260 148//260
f 149//261 150//261 135//261
f 147//262 135//262 150//262
f 150//263 142//263 144//263
f 149//264 142//264 150//264
f 35//265 16//265 17//265
f 35//266 135//266 138//266
f 17//267 135//267 35//267
f 33//268 35//268 138//268
f 33//269 138//269 139//269
f 143//270 136//270 145//270
f 140//271 141//271 147//271
f 150//272 144//272 146//272
f 149//273 148//273 142//273
f 50//274 47//274 48//274
f 47//275 49//275 48//275
